# xmcd
#
# Track frame offsets: 
#        150
#        15690
#        23510
#        39085
#        61220
#        74158
#        91858
#        108580
#        119533
#        141800
#        154330
#        170295
#        187912
#        204204
#        222344
#        233932
#        252757
#        280564
#        302572
#        313604
#
# Disc length: 4386 seconds
#
# Revision: 3
# Processed by: cddbd v1.5.1PL0 Copyright (c) Steve Scherf et al.
# Submitted via: ExactAudioCopy v0.95a5
#
DISCID=0b112014
DTITLE=Joy Division - Greatest Hits
DYEAR=1998
DGENRE=Blues
TTITLE0=Love Will Tear Us Apart (Strawberry Studios Stockport 03.80)
TTITLE1=The Drawback (Arrow Studios Manchester 03.-04.05.78)
TTITLE2=These Days (Pennine Sound Studios Oldham 08.01.80)
TTITLE3=Dead Souls (Cargo Studios Rochdale 10.-11.79)
TTITLE4=Digital (Cargo Studios Rochdale 11.10.78)
TTITLE5=Sound Of Music (Pennine Sound Studios Oldham 08.01.80)
TTITLE6=No Love Lost (Pennine Sound Studios Oldham 12.77)
TTITLE7=Warsaw (Pennine Sound Studios Oldham 12.77)
TTITLE8=She's Lost Control (Strawberry Studios Stockport 03.80)
TTITLE9=Isolation (Britannia Row Studios London 18.-30.03.80)
TTITLE10=Disorder (Strawberry Studios Stockport 04.79)
TTITLE11=Shadowplay (Strawberry Studios Stockport 04.79)
TTITLE12=Transmission (Strawberry Studios Stockport 28.07.-04.08.79)
TTITLE13=Novelty (Strawberry Studios Stockport 28.07.-04.08.79)
TTITLE14=Leaders Of Men (Pennine Sound Studios Oldham 12.77)
TTITLE15=Atmosphere (Cargo Studios Rochdale 10.-11.79)
TTITLE16=Decades (Britannia Row Studios London 18.-30.03.80)
TTITLE17=Passover (Britannia Row Studios London 18.-30.03.80)
TTITLE18=From Safety To Where...? (Strawberry Studios Stockport 04.79)
TTITLE19=Love Will Tear Us Apart (BBC Maida Vale Studios London 26.09.
TTITLE19=79)
EXTD=ID3G:  17
EXTT0=
EXTT1=
EXTT2=
EXTT3=
EXTT4=
EXTT5=
EXTT6=
EXTT7=
EXTT8=
EXTT9=
EXTT10=
EXTT11=
EXTT12=
EXTT13=
EXTT14=
EXTT15=
EXTT16=
EXTT17=
EXTT18=
EXTT19=
PLAYORDER=
